<svg width="30" height="24" viewBox="0 0 30 24" fill="none" xmlns="http://www.w3.org/2000/svg">
<path d="M26.4999 8.49997H10.84C10.9405 8.28248 11 8.04295 11 7.78799V7.212C11 6.26799 10.232 5.50001 9.288 5.50001H5.712C4.76799 5.50001 4.00002 6.26799 4.00002 7.212V7.78799C4.00002 8.04301 4.05953 8.28248 4.16002 8.49997H3.00001V1.00001C3.00001 0.448505 2.55151 3.63589e-09 2.00001 3.63589e-09H1C0.448504 3.63589e-09 0 0.448505 0 1.00001V9.00001V23C0 23.5515 0.448504 24 1 24H2.00001C2.55151 24 3.00001 23.5515 3.00001 23V16.5H7.00003V9.49998H8.00003V16.5H27V23C27 23.5515 27.4485 24 28 24H29C29.5515 24 30 23.5515 30 23V12C29.9999 10.0705 28.4299 8.49997 26.4999 8.49997ZM9.99998 7.78799C9.99998 8.1805 9.68051 8.49997 9.288 8.49997H7.5H5.712C5.31949 8.49997 5.00002 8.1805 5.00002 7.78799V7.212C5.00002 6.81949 5.31949 6.50002 5.712 6.50002H9.288C9.68051 6.50002 9.99998 6.81949 9.99998 7.212V7.78799Z" fill="white"/>
</svg>
