<svg width="22" height="16" viewBox="0 0 22 16" fill="none" xmlns="http://www.w3.org/2000/svg">
<path d="M8.60154 13.9911C9.04653 14.434 9.04809 15.1329 8.60509 15.5777C8.16205 16.0076 7.46305 16.0092 7.01809 15.5813L0.352238 8.94778C0.145778 8.74229 0.0181387 8.45664 0.0174299 8.13972C0.0167211 7.8228 0.143081 7.53658 0.348618 7.32917L6.98473 0.665916C7.42774 0.221031 8.12674 0.219467 8.57173 0.662366C9.01672 1.10527 9.01828 1.8041 8.57528 2.24898L3.8239 7.00448L20.7289 6.96667C21.3479 6.96428 21.841 7.47106 21.8424 8.08991C21.8438 8.70876 21.3529 9.20174 20.7339 9.20312L3.8299 9.24093L8.60154 13.9911Z" fill="white" fill-opacity="0.6"/>
</svg>
