<svg width="22" height="16" viewBox="0 0 22 16" fill="none" xmlns="http://www.w3.org/2000/svg">
<path d="M13.2581 1.93124C12.8131 1.48834 12.8115 0.789512 13.2545 0.344627C13.6976 -0.0852615 14.3966 -0.0868249 14.8415 0.341078L21.5074 6.97459C21.7138 7.18007 21.8415 7.46572 21.8422 7.78264C21.8429 8.09957 21.7165 8.38578 21.511 8.59319L14.8749 15.2564C14.4319 15.7013 13.7329 15.7029 13.2879 15.26C12.8429 14.8171 12.8413 14.1183 13.2843 13.6734L18.0357 8.91789L1.13076 8.9557C0.511764 8.95808 0.0186294 8.4513 0.0172454 7.83245C0.0158613 7.2136 0.50676 6.72062 1.12576 6.71924L18.0297 6.68143L13.2581 1.93124Z" fill="white" fill-opacity="0.6"/>
</svg>
