<svg width="30" height="22" viewBox="0 0 30 22" fill="none" xmlns="http://www.w3.org/2000/svg">
<path d="M11.1381 10.7894C11.1381 11.5447 11.059 11.922 10.512 11.922C9.94095 11.922 9.85081 11.579 9.85081 10.8933V4.86318H5.41671V11.9456C5.41671 13.1776 5.71296 14.1923 6.40711 14.9898C7.10113 15.7865 7.9588 16.185 9.03037 16.185C9.75505 16.185 10.4827 15.9623 11.2382 15.5151C10.8219 17.0944 9.88644 17.8838 8.48273 17.8838C8.04345 17.8838 7.62398 17.7604 6.93104 17.5133C6.93104 17.5133 6.27519 17.3047 5.41671 16.8044C5.41671 17.893 5.41671 20.484 5.41671 20.484C5.41671 20.484 6.27063 21.0198 6.93104 21.269C7.73996 21.5769 8.5363 21.7311 9.33813 21.7311C11.1659 21.7311 12.6944 21.03 13.9821 19.6283C15.0614 18.4498 15.5722 16.9013 15.5722 14.984V4.86318H11.1381V10.7894ZM21.1916 0.323C15.9294 0.797744 16.2872 6.43377 16.2872 6.43377C16.2872 6.43377 16.2872 15.2586 16.2872 16.2896C19.148 16.2896 20.5781 14.9141 20.5781 13.0094C20.5781 12.1511 20.5781 11.7221 20.5781 11.7221H22.6884V7.43517H20.5781V6.86143C20.5781 6.19137 20.7553 5.67557 21.0522 5.31324C21.3427 4.95963 21.7672 4.77988 22.2965 4.77183C22.6494 4.77585 23.2979 4.89296 23.429 5.40259L23.4387 5.4431V9.91124C23.4387 11.5523 23.7474 12.8694 24.4107 13.8632C24.9347 14.6411 25.619 15.2571 26.4863 15.7121C27.3539 16.1662 28.2661 16.3925 29.2458 16.3925C29.3538 16.3925 29.5504 16.3894 29.732 16.3813V11.8411C28.825 11.8411 28.4359 11.6731 28.1472 11.326C27.8578 10.9795 27.718 10.2933 27.718 9.4357H29.2624V4.86318H27.7998C27.5247 3.14852 26.4967 0.565671 22.6834 0.277927C22.6834 0.277927 22.232 0.260891 21.8783 0.273366C21.6022 0.283293 21.1916 0.323 21.1916 0.323ZM6.20046 15.9328L6.20367 15.9396C5.71014 16.242 5.13063 16.4521 4.7018 16.5632V16.5865L4.68693 16.5653C4.4243 16.623 4.16394 16.6546 3.91349 16.6546C2.83269 16.6546 1.96671 16.2527 1.26706 15.4487C0.567287 14.6445 0.267822 13.6211 0.267822 12.3783V0.565805H4.7018V12.3785C4.7018 13.6212 4.99764 14.6446 5.69796 15.4487C5.85693 15.6314 6.0234 15.791 6.20046 15.9328Z" fill="#FF00BF"/>
<mask id="mask0_10_409" style="mask-type:alpha" maskUnits="userSpaceOnUse" x="0" y="0" width="30" height="22">
<rect width="30" height="22" fill="#FF00BF"/>
</mask>
<g mask="url(#mask0_10_409)">
<path opacity="0.16" d="M11.1381 10.7894C11.1381 11.5447 11.059 11.922 10.512 11.922C9.94095 11.922 9.85081 11.579 9.85081 10.8933V4.86318H5.41671V11.9456C5.41671 13.1776 5.71296 14.1923 6.40711 14.9898C7.10113 15.7865 7.9588 16.185 9.03037 16.185C9.75505 16.185 10.4827 15.9623 11.2382 15.5151C10.8219 17.0944 9.88644 17.8838 8.48273 17.8838C8.04345 17.8838 7.62398 17.7604 6.93104 17.5133C6.93104 17.5133 6.27519 17.3047 5.41671 16.8044C5.41671 17.893 5.41671 20.484 5.41671 20.484C5.41671 20.484 6.27063 21.0198 6.93104 21.269C7.73996 21.5769 8.5363 21.7311 9.33813 21.7311C11.1659 21.7311 12.6944 21.03 13.9821 19.6283C15.0614 18.4498 15.5722 16.9013 15.5722 14.984V4.86318H11.1381V10.7894ZM21.1916 0.323C15.9294 0.797744 16.2872 6.43377 16.2872 6.43377C16.2872 6.43377 16.2872 15.2586 16.2872 16.2896C19.148 16.2896 20.5781 14.9141 20.5781 13.0094C20.5781 12.1511 20.5781 11.7221 20.5781 11.7221H22.6884V7.43517H20.5781V6.86143C20.5781 6.19137 20.7553 5.67557 21.0522 5.31324C21.3427 4.95963 21.7672 4.77988 22.2965 4.77183C22.6494 4.77585 23.2979 4.89296 23.429 5.40259L23.4387 5.4431V9.91124C23.4387 11.5523 23.7474 12.8694 24.4107 13.8632C24.9347 14.6411 25.619 15.2571 26.4863 15.7121C27.3539 16.1662 28.2661 16.3925 29.2458 16.3925C29.3538 16.3925 29.5504 16.3894 29.732 16.3813V11.8411C28.825 11.8411 28.4359 11.6731 28.1472 11.326C27.8578 10.9795 27.718 10.2933 27.718 9.4357H29.2624V4.86318H27.7998C27.5247 3.14852 26.4967 0.565671 22.6834 0.277927C22.6834 0.277927 22.232 0.260891 21.8783 0.273366C21.6022 0.283293 21.1916 0.323 21.1916 0.323ZM6.20046 15.9328L6.20367 15.9396C5.71014 16.242 5.13063 16.4521 4.7018 16.5632V16.5865L4.68693 16.5653C4.4243 16.623 4.16394 16.6546 3.91349 16.6546C2.83269 16.6546 1.96671 16.2527 1.26706 15.4487C0.567287 14.6445 0.267822 13.6211 0.267822 12.3783V0.565805H4.7018V12.3785C4.7018 13.6212 4.99764 14.6446 5.69796 15.4487C5.85693 15.6314 6.0234 15.791 6.20046 15.9328Z" fill="#FF00BF"/>
</g>
</svg>
