<svg width="44" height="44" viewBox="0 0 44 44" fill="none" xmlns="http://www.w3.org/2000/svg">
<path d="M22 0C9.84883 0 0 9.84883 0 22C0 34.151 9.84883 44 22 44C34.151 44 44 34.151 44 22C44 9.84883 34.151 0 22 0ZM32.5271 23.7663L19.4043 32.7941C19.0392 33.0441 18.6143 33.172 18.1882 33.172C17.8453 33.172 17.5048 33.0905 17.1913 32.9267C16.4867 32.554 16.0442 31.8233 16.0442 31.028V12.9722C16.0442 12.1769 16.4867 11.4462 17.1913 11.0734C17.8959 10.7038 18.7473 10.7547 19.4043 11.206L32.5271 20.2337C33.1077 20.6335 33.4557 21.2949 33.4557 22C33.4557 22.7051 33.1079 23.3665 32.5271 23.7663Z" fill="white"/>
</svg>
