<svg width="28" height="26" viewBox="0 0 28 26" fill="none" xmlns="http://www.w3.org/2000/svg">
<path d="M2.29533 22.7531H14.9746C15.5859 22.7531 16.1615 22.5823 16.6388 22.259L24.3917 14.4522C24.7322 14.1083 24.9202 13.6498 24.9202 13.1607C24.9202 12.672 24.7322 12.213 24.3912 11.8691C24.0503 11.5252 23.5952 11.3357 23.1106 11.3357C22.6257 11.3357 22.171 11.5252 21.83 11.8691L15.845 17.9053L21.581 6.51939C21.586 6.5098 21.585 6.4993 21.5891 6.48971C21.8694 6.17459 22.3789 6.0869 22.7728 6.31708C22.997 6.44769 23.1595 6.65412 23.2293 6.89845C23.2968 7.13639 23.2687 7.38209 23.1491 7.5908C23.1079 7.6625 23.0884 7.74106 23.0884 7.81824C23.0884 7.97626 23.1695 8.13016 23.3149 8.21465C23.5309 8.34024 23.808 8.2658 23.9334 8.0475C24.1752 7.62551 24.7694 7.47846 25.2159 7.73969C25.6809 8.01051 25.8571 8.58503 25.6085 9.02118C25.608 9.02163 25.608 9.02209 25.6075 9.02255C25.4826 9.2413 25.5568 9.52035 25.7733 9.64639C25.8444 9.68795 25.9223 9.70759 25.9992 9.70759C26.1559 9.70759 26.3081 9.62584 26.3919 9.47924C28.0424 6.59612 27.0095 2.98365 24.0412 1.2546C23.0531 0.67916 21.9491 0.375 20.8487 0.375C18.7431 0.375 16.857 1.47335 15.8037 3.31384C15.6788 3.5326 15.753 3.81164 15.9695 3.93769C16.1864 4.06374 16.4626 3.98838 16.5881 3.77054C16.5881 3.77008 16.5885 3.76917 16.589 3.76871C16.8285 3.35175 17.4367 3.20926 17.8854 3.4714C18.11 3.60202 18.2721 3.80844 18.3419 4.05278C18.4098 4.29072 18.3817 4.53733 18.2626 4.74558C18.2214 4.81729 18.2019 4.89584 18.2019 4.97348C18.2019 5.13149 18.283 5.28494 18.4284 5.36943C18.6444 5.49502 18.9215 5.42058 19.0469 5.20228C19.2887 4.78029 19.8819 4.63369 20.3298 4.89447C20.554 5.02508 20.7161 5.23151 20.7858 5.47584C20.8537 5.71378 20.8256 5.95994 20.7066 6.16819C20.674 6.22482 20.6586 6.28602 20.6522 6.34768L14.227 19.0996H2.29533C1.29639 19.0996 0.484009 19.9189 0.484009 20.9263C0.484009 21.9338 1.29639 22.7531 2.29533 22.7531Z" fill="white"/>
<path d="M26.8948 24.556L25.5599 23.2097L21.7108 19.3278L27.5039 13.4853C27.6809 13.3067 27.6809 13.0181 27.5039 12.8395C27.3268 12.6609 27.0406 12.6609 26.8636 12.8395L16.5811 23.2097H0.919506H0.466675V25.4932H26.5104C26.5203 25.4932 26.5294 25.4895 26.5394 25.4886L26.864 25.8161C26.9519 25.9051 27.0678 25.9499 27.1837 25.9499C27.2997 25.9499 27.4156 25.9051 27.5039 25.8161C27.6809 25.6375 27.6809 25.3489 27.5039 25.1703L26.8948 24.556ZM17.8617 23.2097L21.0705 19.9735L24.2793 23.2097H17.8617Z" fill="white"/>
<path d="M3.63655 5.85536H4.57346C4.65632 6.52122 4.91715 7.13045 5.30659 7.63556L4.64229 8.30508C4.46523 8.48365 4.46523 8.77228 4.64229 8.95085C4.73059 9.0399 4.84651 9.08466 4.96244 9.08466C5.07836 9.08466 5.19429 9.0399 5.28259 8.95085L5.94689 8.28133C6.44772 8.67409 7.0518 8.93714 7.71158 9.02072V9.96562C7.71158 10.2182 7.91445 10.4223 8.16441 10.4223C8.41437 10.4223 8.61724 10.2182 8.61724 9.96562V9.02072C9.27702 8.93714 9.88109 8.67409 10.3819 8.28133L11.0462 8.95085C11.1345 9.0399 11.2505 9.08466 11.3664 9.08466C11.4823 9.08466 11.5982 9.0399 11.6865 8.95085C11.8636 8.77228 11.8636 8.48365 11.6865 8.30508L11.0222 7.63556C11.4117 7.13045 11.6725 6.52122 11.7554 5.85536H12.6932C12.9431 5.85536 13.146 5.65121 13.146 5.39866C13.146 5.14611 12.9431 4.94196 12.6932 4.94196H11.7563C11.6734 4.2761 11.4126 3.66687 11.0231 3.16176L11.6874 2.49224C11.8645 2.31368 11.8645 2.02504 11.6874 1.84648C11.5104 1.66791 11.2242 1.66791 11.0471 1.84648L10.3828 2.51599C9.882 2.12323 9.27792 1.86018 8.61815 1.7766V0.831696C8.61815 0.579143 8.41528 0.375 8.16531 0.375C7.91535 0.375 7.71248 0.579143 7.71248 0.831696V1.7766C7.05271 1.86018 6.44863 2.12323 5.9478 2.51599L5.2835 1.84648C5.10644 1.66791 4.82025 1.66791 4.64319 1.84648C4.46613 2.02504 4.46613 2.31368 4.64319 2.49224L5.3075 3.16176C4.91715 3.66687 4.65632 4.2761 4.57346 4.94196H3.63655C3.38658 4.94196 3.18372 5.14611 3.18372 5.39866C3.18372 5.65121 3.38658 5.85536 3.63655 5.85536Z" fill="white"/>
</svg>
