<svg width="57" height="12" viewBox="0 0 57 12" fill="none" xmlns="http://www.w3.org/2000/svg">
<path fill-rule="evenodd" clip-rule="evenodd" d="M8.96609 0.289786V6.90541C8.96609 9.11456 7.99643 10.032 5.72209 10.032C3.44755 10.032 2.47788 9.11456 2.47788 6.90541V0H0.287345C0.0959118 0 0 0.0967265 0 0.289786V7.01395C0 10.7083 2.33431 12 5.72209 12C9.10967 12 11.444 10.7083 11.444 7.01395V0H9.25324C9.06181 0 8.96609 0.0967265 8.96609 0.289786Z" fill="white"/>
<path fill-rule="evenodd" clip-rule="evenodd" d="M40.7223 1.91956C40.9018 1.91956 40.9856 1.85928 41.0454 1.7263L41.6801 0.144794C41.716 0.0484618 41.6801 0 41.5842 0H32.7618C31.9357 0 31.6248 0.253538 31.6248 0.820895V11.0944C31.6248 11.5774 31.8639 11.7947 32.4985 11.7947H40.7223C40.9018 11.7947 40.9856 11.7342 41.0454 11.6017L41.6801 10.02C41.716 9.92343 41.6801 9.87517 41.5842 9.87517H34.0548V7.78658C34.0548 7.06222 34.4498 6.73619 35.5149 6.73619H38.7832C38.9627 6.73619 39.0463 6.6761 39.1063 6.54332L39.7169 5.0221C39.7526 4.92537 39.7169 4.8773 39.621 4.8773H34.0548V1.91956H40.7223Z" fill="white"/>
<path fill-rule="evenodd" clip-rule="evenodd" d="M22.8929 9.8994H18.5703V7.73832C18.5703 7.01395 18.9652 6.68812 20.0308 6.68812H22.8929C24.2695 6.68812 24.6526 7.21923 24.6526 8.30587C24.6526 9.39232 24.2695 9.8994 22.8929 9.8994ZM18.5703 1.89533H22.438C23.7307 1.89533 24.09 2.38645 24.09 3.40434C24.09 4.42243 23.7307 4.91355 22.438 4.91355H18.5703V1.89533ZM25.1913 5.57744C26.1489 5.07036 26.5438 4.11669 26.5438 2.99399C26.5438 0.386315 24.4371 0 22.2585 0H17.2787C16.4526 0 16.1416 0.253538 16.1416 0.820895V11.0944C16.1416 11.5774 16.3809 11.7947 17.0154 11.7947H23.1443C25.4546 11.7947 27.1064 10.8893 27.1064 8.53518C27.1064 7.1227 26.5079 5.9275 25.1913 5.57744Z" fill="white"/>
<path fill-rule="evenodd" clip-rule="evenodd" d="M52.3991 5.46869H48.329V1.89552H52.3991C53.9192 1.89552 54.2544 2.48692 54.2544 3.68211C54.2544 4.88932 53.9192 5.46869 52.3991 5.46869ZM56.9718 11.5895L54.3503 7.0502C55.655 6.71235 56.7084 5.84319 56.7084 3.63384C56.7084 0.772827 54.9486 0 52.0398 0H47.0362C46.2103 0 45.8989 0.253538 45.8989 0.820895V11.5049C45.8989 11.698 45.9948 11.7947 46.1863 11.7947H48.329V8.35414C48.329 7.62977 48.7239 7.30374 49.7895 7.30374H51.9441L54.3142 11.6017C54.386 11.7222 54.4579 11.7947 54.6374 11.7947H56.8641C57.0198 11.7947 57.0198 11.6618 56.9718 11.5895Z" fill="white"/>
</svg>
